<svg version="1.2" baseProfile="tiny-ps" xmlns="http://www.w3.org/2000/svg" viewBox="0 0 512 512" width="512" height="512"><title>qr-svg</title><style>tspan { white-space:pre }.shp0 { fill: #ffffff } </style><path class="shp0" d="M336 344C336 339.58 339.58 336 344 336L408 336C412.42 336 416 339.58 416 344L416 408C416 412.42 412.42 416 408 416L344 416C339.58 416 336 412.42 336 408L336 344Z" /><path class="shp0" d="M272 280C272 275.58 275.58 272 280 272L328 272C332.42 272 336 275.58 336 280L336 328C336 332.42 332.42 336 328 336L280 336C275.58 336 272 332.42 272 328L272 280Z" /><path class="shp0" d="M416 424C416 419.58 419.58 416 424 416L472 416C476.42 416 480 419.58 480 424L480 472C480 476.42 476.42 480 472 480L424 480C419.58 480 416 476.42 416 472L416 424Z" /><path class="shp0" d="M432 280C432 275.58 435.58 272 440 272L472 272C476.42 272 480 275.58 480 280L480 312C480 316.42 476.42 320 472 320L440 320C435.58 320 432 316.42 432 312L432 280Z" /><path class="shp0" d="M272 440C272 435.58 275.58 432 280 432L312 432C316.42 432 320 435.58 320 440L320 472C320 476.42 316.42 480 312 480L280 480C275.58 480 272 476.42 272 472L272 440Z" /><path fill-rule="evenodd" class="shp0" d="M448 32C452.2 32 456.36 32.83 460.25 34.44C464.13 36.04 467.66 38.4 470.63 41.37C473.6 44.34 475.96 47.87 477.56 51.75C479.17 55.64 480 59.8 480 64L480 208C480 212.2 479.17 216.36 477.56 220.25C475.96 224.13 473.6 227.66 470.63 230.63C467.66 233.6 464.13 235.96 460.25 237.56C456.36 239.17 452.2 240 448 240L304 240C299.8 240 295.64 239.17 291.75 237.56C287.87 235.96 284.34 233.6 281.37 230.63C278.4 227.66 276.04 224.13 274.44 220.25C272.83 216.36 272 212.2 272 208L272 64C272 59.8 272.83 55.64 274.44 51.75C276.04 47.87 278.4 44.34 281.37 41.37C284.34 38.4 287.87 36.04 291.75 34.44C295.64 32.83 299.8 32 304 32L448 32ZM416 104C416 102.95 415.79 101.91 415.39 100.94C414.99 99.97 414.4 99.09 413.66 98.34C412.91 97.6 412.03 97.01 411.06 96.61C410.09 96.21 409.05 96 408 96L344 96C342.95 96 341.91 96.21 340.94 96.61C339.97 97.01 339.09 97.6 338.34 98.34C337.6 99.09 337.01 99.97 336.61 100.94C336.21 101.91 336 102.95 336 104L336 168C336 169.05 336.21 170.09 336.61 171.06C337.01 172.03 337.6 172.91 338.34 173.66C339.09 174.4 339.97 174.99 340.94 175.39C341.91 175.79 342.95 176 344 176L408 176C409.05 176 410.09 175.79 411.06 175.39C412.03 174.99 412.91 174.4 413.66 173.66C414.4 172.91 414.99 172.03 415.39 171.06C415.79 170.09 416 169.05 416 168L416 104Z" /><path fill-rule="evenodd" class="shp0" d="M208 32C212.2 32 216.36 32.83 220.25 34.44C224.13 36.04 227.66 38.4 230.63 41.37C233.6 44.34 235.96 47.87 237.56 51.75C239.17 55.64 240 59.8 240 64L240 208C240 212.2 239.17 216.36 237.56 220.25C235.96 224.13 233.6 227.66 230.63 230.63C227.66 233.6 224.13 235.96 220.25 237.56C216.36 239.17 212.2 240 208 240L64 240C59.8 240 55.64 239.17 51.75 237.56C47.87 235.96 44.34 233.6 41.37 230.63C38.4 227.66 36.04 224.13 34.44 220.25C32.83 216.36 32 212.2 32 208L32 64C32 59.8 32.83 55.64 34.44 51.75C36.04 47.87 38.4 44.34 41.37 41.37C44.34 38.4 47.87 36.04 51.75 34.44C55.64 32.83 59.8 32 64 32L208 32ZM176 104C176 102.95 175.79 101.91 175.39 100.94C174.99 99.97 174.4 99.09 173.66 98.34C172.91 97.6 172.03 97.01 171.06 96.61C170.09 96.21 169.05 96 168 96L104 96C102.95 96 101.91 96.21 100.94 96.61C99.97 97.01 99.09 97.6 98.34 98.34C97.6 99.09 97.01 99.97 96.61 100.94C96.21 101.91 96 102.95 96 104L96 168C96 169.05 96.21 170.09 96.61 171.06C97.01 172.03 97.6 172.91 98.34 173.66C99.09 174.4 99.97 174.99 100.94 175.39C101.91 175.79 102.95 176 104 176L168 176C169.05 176 170.09 175.79 171.06 175.39C172.03 174.99 172.91 174.4 173.66 173.66C174.4 172.91 174.99 172.03 175.39 171.06C175.79 170.09 176 169.05 176 168L176 104Z" /><path fill-rule="evenodd" class="shp0" d="M220.25 274.44C224.13 276.04 227.66 278.4 230.63 281.37C233.6 284.34 235.96 287.87 237.56 291.75C239.17 295.64 240 299.8 240 304L240 448C240 452.2 239.17 456.36 237.56 460.25C235.96 464.13 233.6 467.66 230.63 470.63C227.66 473.6 224.13 475.96 220.25 477.56C216.36 479.17 212.2 480 208 480L64 480C59.8 480 55.64 479.17 51.75 477.56C47.87 475.96 44.34 473.6 41.37 470.63C38.4 467.66 36.04 464.13 34.44 460.25C32.83 456.36 32 452.2 32 448L32 304C32 299.8 32.83 295.64 34.44 291.75C36.04 287.87 38.4 284.34 41.37 281.37C44.34 278.4 47.87 276.04 51.75 274.44C55.64 272.83 59.8 272 64 272L208 272C212.2 272 216.36 272.83 220.25 274.44ZM176 344C176 342.95 175.79 341.91 175.39 340.94C174.99 339.97 174.4 339.09 173.66 338.34C172.91 337.6 172.03 337.01 171.06 336.61C170.09 336.21 169.05 336 168 336L104 336C102.95 336 101.91 336.21 100.94 336.61C99.97 337.01 99.09 337.6 98.34 338.34C97.6 339.09 97.01 339.97 96.61 340.94C96.21 341.91 96 342.95 96 344L96 408C96 409.05 96.21 410.09 96.61 411.06C97.01 412.03 97.6 412.91 98.34 413.66C99.09 414.4 99.97 414.99 100.94 415.39C101.91 415.79 102.95 416 104 416L168 416C169.05 416 170.09 415.79 171.06 415.39C172.03 414.99 172.91 414.4 173.66 413.66C174.4 412.91 174.99 412.03 175.39 411.06C175.79 410.09 176 409.05 176 408L176 344Z" /></svg>